<?xml version="1.0" standalone="no"?>
<!DOCTYPE svg PUBLIC "-//W3C//DTD SVG 20010904//EN"
 "http://www.w3.org/TR/2001/REC-SVG-20010904/DTD/svg10.dtd">
<svg version="1.0" xmlns="http://www.w3.org/2000/svg"
 width="134.000000pt" height="134.000000pt" viewBox="0 0 134.000000 134.000000"
 preserveAspectRatio="xMidYMid meet">
<metadata>
Created by potrace 1.11, written by Peter Selinger 2001-2013
</metadata>
<g transform="translate(0.000000,134.000000) scale(0.100000,-0.100000)"
fill="#000000" stroke="none">
<path d="M676 1323 c-3 -10 -19 -27 -36 -36 -30 -18 -43 -54 -16 -44 7 3 26
-4 42 -15 23 -15 24 -18 7 -13 -27 7 -40 -11 -13 -20 11 -3 20 -11 20 -16 0
-5 7 -9 16 -9 26 0 72 -55 79 -94 9 -45 -14 -103 -54 -138 l-26 -23 21 25 c47
55 59 99 42 150 -17 52 -68 85 -103 67 -18 -9 -19 -9 -5 7 12 16 12 19 -3 28
-12 6 -16 16 -12 29 4 13 2 18 -7 15 -7 -2 -25 -7 -41 -10 -23 -6 -26 -10 -21
-31 4 -15 2 -25 -5 -25 -6 0 -11 15 -11 33 0 18 -7 42 -16 53 -8 10 -13 13 -9
6 23 -45 -4 -164 -40 -178 -22 -9 -18 -28 12 -55 16 -13 22 -17 16 -9 -16 18
-17 34 -1 24 8 -5 9 -2 5 9 -5 12 1 18 21 23 15 4 33 11 40 17 11 9 12 3 8
-29 -6 -36 -5 -37 6 -14 12 25 12 24 16 -13 2 -21 -2 -44 -8 -52 -8 -9 -6 -14
6 -19 21 -8 21 -8 27 37 3 20 10 43 16 50 7 10 7 17 0 24 -6 6 -8 16 -5 22 11
18 44 12 59 -10 39 -55 -56 -168 -148 -176 -16 -2 -36 -5 -42 -8 -7 -2 -12 1
-10 8 1 7 -4 11 -12 9 -7 -1 -33 7 -56 18 -41 20 -44 24 -50 73 -7 59 6 131
35 188 l20 38 -47 -20 c-79 -33 -144 -92 -205 -183 -40 -58 -35 -35 5 27 65
100 164 171 297 211 87 25 92 35 14 29 -166 -12 -301 -97 -363 -228 -50 -107
-65 -176 -66 -300 0 -118 2 -142 29 -335 14 -94 14 -322 2 -390 l-7 -35 16 35
c31 66 46 171 46 313 -1 76 -3 143 -6 148 -4 5 -1 9 4 9 7 0 11 -32 11 -85 0
-57 4 -85 11 -85 9 0 11 33 7 118 -3 77 -2 105 3 82 11 -41 13 -275 3 -293 -5
-8 -4 -9 4 -2 19 18 31 117 29 248 -1 70 1 127 6 127 6 0 12 -131 8 -167 -1
-7 5 -13 13 -13 8 0 17 6 20 13 3 6 5 -7 3 -30 -3 -55 8 -43 26 30 12 43 14
94 11 200 -3 78 -2 153 2 167 5 22 8 19 24 -30 10 -30 19 -73 20 -95 l2 -40 9
30 c5 17 8 54 7 84 -1 42 2 57 17 67 10 8 24 14 29 13 6 0 1 -5 -11 -11 -41
-20 -27 -33 29 -29 46 3 57 8 91 45 28 30 32 32 12 7 -91 -117 -92 -239 -1
-319 19 -17 44 -33 55 -37 23 -7 27 -20 11 -30 -6 -3 -19 -23 -30 -43 -10 -20
-19 -32 -20 -27 0 6 9 25 21 44 26 43 13 56 -31 29 -32 -19 -33 -22 -15 -28
19 -7 19 -7 -2 -14 -13 -4 -23 -12 -23 -18 0 -5 7 -8 15 -4 23 8 18 -4 -10
-26 -32 -25 -33 -48 -2 -41 20 5 20 4 -6 -16 -15 -13 -25 -27 -21 -32 3 -5 10
-7 15 -4 5 4 9 2 9 -4 0 -5 -4 -13 -10 -16 -18 -11 -12 -38 8 -30 14 5 15 4 5
-6 -15 -15 -17 -43 -3 -34 5 3 10 -3 10 -14 0 -12 5 -21 12 -21 6 0 9 -3 6 -6
-11 -10 47 -61 95 -84 27 -12 54 -31 60 -41 20 -32 28 -21 13 16 -15 35 -10
45 11 24 14 -14 25 3 17 26 -4 10 -13 14 -23 10 -9 -3 -1 6 17 20 20 17 32 35
32 51 0 28 14 31 30 7 9 -14 10 -10 5 21 -7 44 -29 82 -55 96 -22 12 -35 -2
-43 -47 -6 -29 -4 -33 15 -33 18 0 20 4 15 43 -5 40 -5 40 5 10 24 -71 -20
-145 -73 -124 -74 28 -92 119 -47 241 11 30 20 63 21 72 1 13 8 15 32 11 l30
-5 -30 17 c-40 22 -84 64 -101 97 -24 46 -16 44 14 -3 16 -24 35 -49 43 -55
32 -26 91 -54 114 -54 76 0 131 82 90 136 -14 19 -14 19 -15 -1 0 -20 -1 -20
-18 1 -9 12 -25 24 -35 27 -15 6 -17 3 -12 -14 6 -18 4 -19 -12 -12 -16 8 -24
9 -50 4 -5 -1 -2 -5 5 -10 10 -6 3 -10 -22 -15 -43 -8 -45 -18 -10 -41 18 -12
36 -15 60 -10 27 5 34 3 34 -10 0 -19 11 -19 35 -1 19 14 19 14 0 36 -15 16
-16 20 -3 15 28 -11 31 -38 8 -57 -16 -13 -32 -16 -63 -12 -61 8 -99 34 -124
84 -44 85 -21 166 67 240 29 25 70 62 91 83 22 21 39 35 39 31 0 -3 -31 -36
-68 -73 -75 -73 -92 -112 -69 -160 9 -20 20 -26 44 -26 17 -1 31 2 31 5 -4 51
57 101 124 101 69 -1 88 3 88 15 0 7 -13 17 -30 23 -16 5 -30 12 -30 15 0 8
60 -15 67 -27 3 -6 6 -33 5 -61 -1 -28 2 -67 7 -86 l9 -35 1 43 c1 23 1 44 1
47 0 3 7 21 15 41 8 20 15 46 16 58 0 20 1 19 10 -3 5 -14 8 -87 5 -171 -3
-102 -1 -164 8 -204 19 -80 26 -80 22 3 -3 81 14 235 29 249 8 8 6 -17 -5 -64
-8 -35 -15 -153 -11 -191 0 -7 8 -13 16 -13 12 0 15 15 15 78 0 42 2 118 5
167 2 50 1 78 -1 63 -8 -41 -21 -34 -16 7 3 23 8 32 16 28 8 -5 8 -3 0 8 -6 8
-11 30 -12 49 l-1 35 14 -30 c11 -24 13 -73 8 -239 -5 -207 7 -363 29 -350 4
3 6 10 2 15 -11 19 -6 196 10 309 9 63 20 144 24 180 l8 65 10 -45 c8 -37 7
-46 -5 -51 -13 -5 -12 -7 4 -11 16 -5 17 -6 3 -7 -12 -1 -18 -10 -19 -28 0
-16 -2 -37 -4 -48 -14 -68 -25 -176 -25 -232 0 -52 3 -64 14 -60 11 4 14 -8
15 -59 1 -74 26 -207 47 -244 12 -23 13 -21 6 25 -17 118 -6 345 24 505 14 75
13 269 -2 335 -57 249 -192 370 -432 389 -30 2 -51 2 -48 -1 3 -3 47 -20 99
-37 99 -34 160 -71 219 -133 38 -40 98 -135 98 -156 0 -6 -9 6 -21 28 -57 108
-157 200 -240 220 l-27 7 24 -49 c49 -101 41 -213 -21 -282 -19 -21 -31 -41
-27 -45 4 -4 3 -7 -3 -6 -25 5 -44 -2 -71 -27 -16 -15 -33 -26 -37 -25 -5 1
-5 -3 -1 -9 5 -8 3 -9 -6 -4 -9 6 -11 4 -5 -5 5 -9 4 -11 -4 -6 -6 4 -14 0
-17 -8 -3 -9 -11 -16 -17 -16 -8 0 -8 3 0 11 6 6 9 19 6 28 -3 10 -2 12 4 4
12 -16 54 19 43 37 -5 8 -3 22 5 34 14 22 15 23 15 54 0 14 2 15 10 2 9 -13
10 -13 11 0 2 23 2 23 -5 54 -6 26 -6 27 9 12 9 -9 21 -14 26 -10 5 3 -1 14
-13 24 -16 13 -18 18 -8 18 8 -1 24 0 34 0 20 2 20 2 0 17 -19 15 -19 15 3 34
l22 18 -25 11 c-25 12 -32 36 -14 47 23 14 9 31 -22 27 -26 -4 -30 -2 -25 12
4 9 10 23 13 31 5 13 2 14 -21 5 -36 -13 -35 -14 -35 17 0 21 -3 24 -12 15 -7
-7 -23 -12 -35 -12 -19 0 -22 3 -15 18 8 15 6 71 -3 80 -2 2 -6 -5 -9 -15z
m134 -196 c-3 -2 -20 15 -39 37 l-35 41 39 -37 c22 -21 37 -39 35 -41z m-213
33 c2 -23 -12 -35 -22 -20 -4 6 -1 17 5 25 16 19 15 19 17 -5z m-446 -193
c-10 -9 -11 -8 -5 6 3 10 9 15 12 12 3 -3 0 -11 -7 -18z m333 -109 c-5 -8 -48
34 -72 70 -11 18 -1 12 29 -18 26 -25 45 -48 43 -52z m181 39 c-16 -12 -50
-42 -74 -67 -37 -37 -41 -39 -22 -12 21 30 107 102 121 101 3 0 -8 -10 -25
-22z m-158 -29 c-3 -8 -6 -5 -6 6 -1 11 2 17 5 13 3 -3 4 -12 1 -19z m248 -8
c-16 -16 -32 -30 -37 -30 -8 0 53 59 61 60 3 0 -8 -13 -24 -30z m-507 -37 c0
-32 7 -93 16 -137 9 -43 15 -81 12 -83 -3 -3 -8 12 -12 33 -4 22 -13 66 -20
99 l-13 60 1 -73 c1 -39 -1 -75 -5 -78 -10 -10 -6 177 5 207 5 16 11 29 13 29
1 0 2 -26 3 -57z m-91 -67 c-6 -12 -6 -16 1 -12 6 3 11 -12 14 -39 2 -25 0
-45 -4 -45 -5 0 -8 11 -8 25 0 16 -6 25 -16 25 -10 0 -14 6 -10 18 2 9 8 37
12 62 7 43 8 44 14 15 4 -16 2 -38 -3 -49z m540 39 c-7 -13 -14 -20 -15 -14
-2 5 2 16 8 24 18 21 20 18 7 -10z m8 -84 c-6 -5 -25 10 -25 20 0 5 6 4 14 -3
8 -7 12 -15 11 -17z m-155 15 c0 -3 -4 -8 -10 -11 -5 -3 -10 -1 -10 4 0 6 5
11 10 11 6 0 10 -2 10 -4z m653 -58 c-6 -59 -13 -61 -13 -5 0 26 4 47 9 47 4
0 6 -19 4 -42z m-1056 -30 c-2 -13 -4 -3 -4 22 0 25 2 35 4 23 2 -13 2 -33 0
-45z m401 26 c-3 -14 -5 -12 -10 9 -3 19 -2 25 4 19 6 -6 8 -18 6 -28z m-366
-44 c3 -16 1 -30 -3 -30 -4 0 -9 14 -11 30 -3 17 -1 30 3 30 4 0 9 -13 11 -30z
m-24 -35 c-3 -3 -9 2 -12 12 -6 14 -5 15 5 6 7 -7 10 -15 7 -18z m1038 9 c-4
-9 -9 -63 -13 -120 -3 -57 -10 -104 -14 -104 -5 0 -7 6 -4 13 3 10 6 51 17
215 1 6 6 12 11 12 5 0 6 -7 3 -16z m-912 -42 c2 -17 -1 -29 -5 -26 -5 3 -9
19 -9 36 0 39 9 32 14 -10z m-127 -14 c-3 -7 -5 -2 -5 12 0 14 2 19 5 13 2 -7
2 -19 0 -25z m133 -43 c0 -8 -4 -15 -8 -15 -5 0 -9 7 -9 15 0 8 4 15 9 15 4 0
8 -7 8 -15z m261 -126 c-5 -13 -10 -19 -10 -12 -1 15 10 45 15 40 3 -2 0 -15
-5 -28z m-14 -71 c-3 -7 -5 -2 -5 12 0 14 2 19 5 13 2 -7 2 -19 0 -25z m0 -40
c-3 -8 -6 -5 -6 6 -1 11 2 17 5 13 3 -3 4 -12 1 -19z m18 -55 c3 -16 16 -39
28 -53 l22 -25 -26 23 c-23 20 -59 99 -39 87 4 -3 11 -17 15 -32z"/>
<path d="M321 755 c-1 -58 10 -97 22 -78 8 13 1 82 -12 113 -8 21 -10 15 -10
-35z"/>
<path d="M1007 787 c-15 -54 -19 -105 -8 -111 14 -9 23 31 19 90 -3 44 -4 46
-11 21z"/>
<path d="M736 141 c-3 -5 1 -11 9 -15 9 -3 15 0 15 9 0 16 -16 20 -24 6z"/>
</g>
</svg>
